<svg xmlns="http://www.w3.org/2000/svg" version="1.1" xmlns:xlink="http://www.w3.org/1999/xlink" xmlns:svgjs="http://svgjs.com/svgjs" width="1366" height="768" preserveAspectRatio="none" viewBox="0 0 1366 768">
    <g mask="url(&quot;#SvgjsMask1899&quot;)" fill="none">
        <use xlink:href="#SvgjsSymbol1906" x="0" y="0"></use>
        <use xlink:href="#SvgjsSymbol1906" x="0" y="720"></use>
        <use xlink:href="#SvgjsSymbol1906" x="720" y="0"></use>
        <use xlink:href="#SvgjsSymbol1906" x="720" y="720"></use>
    </g>
    <defs>
        <mask id="SvgjsMask1899">
            <rect width="1366" height="768" fill="#ffffff"></rect>
        </mask>
        <path d="M-1 0 a1 1 0 1 0 2 0 a1 1 0 1 0 -2 0z" id="SvgjsPath1905"></path>
        <path d="M-3 0 a3 3 0 1 0 6 0 a3 3 0 1 0 -6 0z" id="SvgjsPath1903"></path>
        <path d="M-5 0 a5 5 0 1 0 10 0 a5 5 0 1 0 -10 0z" id="SvgjsPath1902"></path>
        <path d="M2 -2 L-2 2z" id="SvgjsPath1901"></path>
        <path d="M6 -6 L-6 6z" id="SvgjsPath1900"></path>
        <path d="M30 -30 L-30 30z" id="SvgjsPath1904"></path>
    </defs>
    <symbol id="SvgjsSymbol1906">
        <use xlink:href="#SvgjsPath1900" x="30" y="30" stroke="#FF00FF"></use>
        <use xlink:href="#SvgjsPath1901" x="30" y="90" stroke="lime"></use>
        <use xlink:href="#SvgjsPath1902" x="30" y="150" stroke="red"></use>
        <use xlink:href="#SvgjsPath1902" x="30" y="210" stroke="blue"></use>
        <use xlink:href="#SvgjsPath1902" x="30" y="270" stroke="cyan"></use>
        <use xlink:href="#SvgjsPath1900" x="30" y="330" stroke="blueviolet"></use>
        <use xlink:href="#SvgjsPath1901" x="30" y="390" stroke="crimson"></use>
        <use xlink:href="#SvgjsPath1903" x="30" y="450" stroke="darkblue"></use>
        <use xlink:href="#SvgjsPath1902" x="30" y="510" stroke="darkgreen"></use>
        <use xlink:href="#SvgjsPath1902" x="30" y="570" stroke="darkorange"></use>
        <use xlink:href="#SvgjsPath1900" x="30" y="630" stroke="darkmagenta"></use>
        <use xlink:href="#SvgjsPath1901" x="30" y="690" stroke="mediumvioletred"></use>
        <use xlink:href="#SvgjsPath1904" x="90" y="30" stroke="dodgerblue" stroke-width="3"></use>
        <use xlink:href="#SvgjsPath1905" x="90" y="90" stroke="cyan"></use>
        <use xlink:href="#SvgjsPath1903" x="90" y="150" stroke="lime"></use>
        <use xlink:href="#SvgjsPath1901" x="90" y="210" stroke="yellow"></use>
        <use xlink:href="#SvgjsPath1902" x="90" y="270" stroke="pink"></use>
        <use xlink:href="#SvgjsPath1902" x="90" y="330" stroke="black"></use>
        <use xlink:href="#SvgjsPath1900" x="90" y="390" stroke="crimson"></use>
        <use xlink:href="#SvgjsPath1902" x="90" y="450" stroke="magenta"></use>
        <use xlink:href="#SvgjsPath1905" x="90" y="510" stroke="yellowgreen"></use>
        <use xlink:href="#SvgjsPath1900" x="90" y="570" stroke="violet"></use>
        <use xlink:href="#SvgjsPath1902" x="90" y="630" stroke="darkgreen"></use>
        <use xlink:href="#SvgjsPath1905" x="90" y="690" stroke="darkblue"></use>
        <use xlink:href="#SvgjsPath1902" x="150" y="30" stroke="orange"></use>
        <use xlink:href="#SvgjsPath1901" x="150" y="90" stroke="green"></use>
        <use xlink:href="#SvgjsPath1900" x="150" y="150" stroke="blue"></use>
        <use xlink:href="#SvgjsPath1900" x="150" y="210" stroke="red"></use>
        <use xlink:href="#SvgjsPath1905" x="150" y="270" stroke="black"></use>
        <use xlink:href="#SvgjsPath1904" x="150" y="330" stroke="lime" stroke-width="3"></use>
        <use xlink:href="#SvgjsPath1901" x="150" y="390" stroke="crimson"></use>
        <use xlink:href="#SvgjsPath1900" x="150" y="450" stroke="magenta"></use>
        <use xlink:href="#SvgjsPath1900" x="150" y="510" stroke="darkgreen"></use>
        <use xlink:href="#SvgjsPath1901" x="150" y="570" stroke="darkblue"></use>
        <use xlink:href="#SvgjsPath1905" x="150" y="630" stroke="darkorange"></use>
        <use xlink:href="#SvgjsPath1901" x="150" y="690" stroke="violet"></use>
        <use xlink:href="#SvgjsPath1903" x="210" y="30" stroke="teal"></use>
        <use xlink:href="#SvgjsPath1903" x="210" y="90" stroke="violet"></use>
        <use xlink:href="#SvgjsPath1900" x="210" y="150" stroke="teal"></use>
        <use xlink:href="#SvgjsPath1900" x="210" y="210" stroke="steelblue"></use>
        <use xlink:href="#SvgjsPath1905" x="210" y="270" stroke="springgreen"></use>
        <use xlink:href="#SvgjsPath1901" x="210" y="330" stroke="sandybrown"></use>
        <use xlink:href="#SvgjsPath1902" x="210" y="390" stroke="peru"></use>
        <use xlink:href="#SvgjsPath1902" x="210" y="450" stroke="mediumvioletred"></use>
        <use xlink:href="#SvgjsPath1904" x="210" y="510" stroke="gold" stroke-width="3"></use>
        <use xlink:href="#SvgjsPath1905" x="210" y="570" stroke="navy"></use>
        <use xlink:href="#SvgjsPath1902" x="210" y="630" stroke="magenta"></use>
        <use xlink:href="#SvgjsPath1901" x="210" y="690" stroke="lawngreen"></use>
        <use xlink:href="#SvgjsPath1900" x="270" y="30" stroke="fuchsia"></use>
        <use xlink:href="#SvgjsPath1902" x="270" y="90" stroke="lime"></use>
        <use xlink:href="#SvgjsPath1902" x="270" y="150" stroke="yellow"></use>
        <use xlink:href="#SvgjsPath1905" x="270" y="210" stroke="aqua"></use>
        <use xlink:href="#SvgjsPath1900" x="270" y="270" stroke="blue"></use>
        <use xlink:href="#SvgjsPath1901" x="270" y="330" stroke="deeppink"></use>
        <use xlink:href="#SvgjsPath1902" x="270" y="390" stroke="darkorange"></use>
        <use xlink:href="#SvgjsPath1900" x="270" y="450" stroke="navy"></use>
        <use xlink:href="#SvgjsPath1901" x="270" y="510" stroke="firebrick"></use>
        <use xlink:href="#SvgjsPath1902" x="270" y="570" stroke="black"></use>
        <use xlink:href="#SvgjsPath1900" x="270" y="630" stroke="skyblue"></use>
        <use xlink:href="#SvgjsPath1905" x="270" y="690" stroke="springgreen"></use>
        <use xlink:href="#SvgjsPath1902" x="330" y="30" stroke="lime"></use>
        <use xlink:href="#SvgjsPath1900" x="330" y="90" stroke="cyan"></use>
        <use xlink:href="#SvgjsPath1902" x="330" y="150" stroke="green"></use>
        <use xlink:href="#SvgjsPath1903" x="330" y="210" stroke="red"></use>
        <use xlink:href="#SvgjsPath1902" x="330" y="270" stroke="black"></use>
        <use xlink:href="#SvgjsPath1900" x="330" y="330" stroke="red"></use>
        <use xlink:href="#SvgjsPath1901" x="330" y="390" stroke="purple"></use>
        <use xlink:href="#SvgjsPath1900" x="330" y="450" stroke="yellow"></use>
        <use xlink:href="#SvgjsPath1901" x="330" y="510" stroke="brown"></use>
        <use xlink:href="#SvgjsPath1902" x="330" y="570" stroke="chocolate"></use>
        <use xlink:href="#SvgjsPath1900" x="330" y="630" stroke="crimson"></use>
        <use xlink:href="#SvgjsPath1900" x="330" y="690" stroke="grey"></use>
        <use xlink:href="#SvgjsPath1900" x="390" y="30" stroke="#fc4a1a"></use>
        <use xlink:href="#SvgjsPath1903" x="390" y="90" stroke="darkblue"></use>
        <use xlink:href="#SvgjsPath1900" x="390" y="150" stroke="aqua"></use>
        <use xlink:href="#SvgjsPath1902" x="390" y="210" stroke="yellow"></use>
        <use xlink:href="#SvgjsPath1902" x="390" y="270" stroke="pink"></use>
        <use xlink:href="#SvgjsPath1905" x="390" y="330" stroke="lime"></use>
        <use xlink:href="#SvgjsPath1903" x="390" y="390" stroke="black"></use>
        <use xlink:href="#SvgjsPath1902" x="390" y="450" stroke="darkolivegreen"></use>
        <use xlink:href="#SvgjsPath1902" x="390" y="510" stroke="darkorchid"></use>
        <use xlink:href="#SvgjsPath1900" x="390" y="570" stroke="darkorange"></use>
        <use xlink:href="#SvgjsPath1902" x="390" y="630" stroke="darksalmon"></use>
        <use xlink:href="#SvgjsPath1905" x="390" y="690" stroke="darkred"></use>
        <use xlink:href="#SvgjsPath1903" x="450" y="30" stroke="darkblue"></use>
        <use xlink:href="#SvgjsPath1903" x="450" y="90" stroke="red"></use>
        <use xlink:href="#SvgjsPath1902" x="450" y="150" stroke="darkolivegreen"></use>
        <use xlink:href="#SvgjsPath1903" x="450" y="210" stroke="black"></use>
        <use xlink:href="#SvgjsPath1902" x="450" y="270" stroke="#fc4a1a"></use>
        <use xlink:href="#SvgjsPath1902" x="450" y="330" stroke="darkorchid"></use>
        <use xlink:href="#SvgjsPath1900" x="450" y="390" stroke="darkred"></use>
        <use xlink:href="#SvgjsPath1902" x="450" y="450" stroke="darksalmon"></use>
        <use xlink:href="#SvgjsPath1905" x="450" y="510" stroke="darksalmon"></use>
        <use xlink:href="#SvgjsPath1903" x="450" y="570" stroke="deeppink"></use>
        <use xlink:href="#SvgjsPath1900" x="450" y="630" stroke="lime"></use>
        <use xlink:href="#SvgjsPath1905" x="450" y="690" stroke="orange"></use>
        <use xlink:href="#SvgjsPath1900" x="510" y="30" stroke="lime"></use>
        <use xlink:href="#SvgjsPath1901" x="510" y="90" stroke="cyan"></use>
        <use xlink:href="#SvgjsPath1904" x="510" y="150" stroke="#fc4a1a" stroke-width="3"></use>
        <use xlink:href="#SvgjsPath1905" x="510" y="210" stroke="purple"></use>
        <use xlink:href="#SvgjsPath1900" x="510" y="270" stroke="darkslateblue"></use>
        <use xlink:href="#SvgjsPath1902" x="510" y="330" stroke="goldenrod"></use>
        <use xlink:href="#SvgjsPath1900" x="510" y="390" stroke="gray"></use>
        <use xlink:href="#SvgjsPath1902" x="510" y="450" stroke="green"></use>
        <use xlink:href="#SvgjsPath1902" x="510" y="510" stroke="greenyellow"></use>
        <use xlink:href="#SvgjsPath1900" x="510" y="570" stroke="black"></use>
        <use xlink:href="#SvgjsPath1901" x="510" y="630" stroke="darksalmon"></use>
        <use xlink:href="#SvgjsPath1902" x="510" y="690" stroke="lime"></use>
        <use xlink:href="#SvgjsPath1900" x="570" y="30" stroke="lime"></use>
        <use xlink:href="#SvgjsPath1905" x="570" y="90" stroke="blue"></use>
        <use xlink:href="#SvgjsPath1900" x="570" y="150" stroke="crimson"></use>
        <use xlink:href="#SvgjsPath1902" x="570" y="210" stroke="darkmagenta"></use>
        <use xlink:href="#SvgjsPath1900" x="570" y="270" stroke="darkolivegreen"></use>
        <use xlink:href="#SvgjsPath1902" x="570" y="330" stroke="darkorchid"></use>
        <use xlink:href="#SvgjsPath1900" x="570" y="390" stroke="darkslateblue"></use>
        <use xlink:href="#SvgjsPath1905" x="570" y="450" stroke="darksalmon"></use>
        <use xlink:href="#SvgjsPath1901" x="570" y="510" stroke="orangered"></use>
        <use xlink:href="#SvgjsPath1905" x="570" y="570" stroke="cyan"></use>
        <use xlink:href="#SvgjsPath1902" x="570" y="630" stroke="gray"></use>
        <use xlink:href="#SvgjsPath1900" x="570" y="690" stroke="black"></use>
        <use xlink:href="#SvgjsPath1902" x="630" y="30" stroke="red"></use>
        <use xlink:href="#SvgjsPath1902" x="630" y="90" stroke="black"></use>
        <use xlink:href="#SvgjsPath1900" x="630" y="150" stroke="lime"></use>
        <use xlink:href="#SvgjsPath1905" x="630" y="210" stroke="darkblue"></use>
        <use xlink:href="#SvgjsPath1904" x="630" y="270" stroke="magenta" stroke-width="3"></use>
        <use xlink:href="#SvgjsPath1900" x="630" y="330" stroke="darkolivegreen"></use>
        <use xlink:href="#SvgjsPath1904" x="630" y="390" stroke="teal" stroke-width="3"></use>
        <use xlink:href="#SvgjsPath1902" x="630" y="450" stroke="purple"></use>
        <use xlink:href="#SvgjsPath1904" x="630" y="510" stroke="orchid" stroke-width="3"></use>
        <use xlink:href="#SvgjsPath1905" x="630" y="570" stroke="black"></use>
        <use xlink:href="#SvgjsPath1902" x="630" y="630" stroke="blue"></use>
        <use xlink:href="#SvgjsPath1904" x="630" y="690" stroke="mediumslateblue" stroke-width="3"></use>
        <use xlink:href="#SvgjsPath1902" x="690" y="30" stroke="#1c538e"></use>
        <use xlink:href="#SvgjsPath1901" x="690" y="90" stroke="blue"></use>
        <use xlink:href="#SvgjsPath1902" x="690" y="150" stroke="lime"></use>
        <use xlink:href="#SvgjsPath1900" x="690" y="210" stroke="red"></use>
        <use xlink:href="#SvgjsPath1900" x="690" y="270" stroke="green"></use>
        <use xlink:href="#SvgjsPath1903" x="690" y="330" stroke="orange"></use>
        <use xlink:href="#SvgjsPath1903" x="690" y="390" stroke="purple"></use>
        <use xlink:href="#SvgjsPath1900" x="690" y="450" stroke="#1c538e"></use>
        <use xlink:href="#SvgjsPath1905" x="690" y="510" stroke="darkolivegreen"></use>
        <use xlink:href="#SvgjsPath1902" x="690" y="570" stroke="darksalmon"></use>
        <use xlink:href="#SvgjsPath1902" x="690" y="630" stroke="aqua"></use>
        <use xlink:href="#SvgjsPath1901" x="690" y="690" stroke="deeppink"></use>
    </symbol>
</svg>